# xmcd
#
# Track frame offsets: 
#        150
#        21740
#        43000
#        60897
#        81925
#        104642
#        121802
#        141097
#        164402
#        188640
#
# Disc length: 2796 seconds
#
# Revision: 2
# Processed by: cddbd v1.5.2PL0 Copyright (c) Steve Scherf et al.
# Submitted via: ExactAudioCopyFreeDBPlugin 1.0
#
DISCID=860aea0a
DTITLE=堀内孝雄 - OLD and NEW Disc1
DYEAR=2006
DGENRE=blues
TTITLE0=涙のとなり
TTITLE1=人間劇場
TTITLE2=傘になれたら
TTITLE3=海猫
TTITLE4=巷の夢の
TTITLE5=人生キミのもの
TTITLE6=不忍の恋
TTITLE7=秋霖(ニューバージョン)
TTITLE8=のどか
TTITLE9=限りないあこがれの中へ
EXTD=
EXTT0=
EXTT1=
EXTT2=
EXTT3=
EXTT4=
EXTT5=
EXTT6=
EXTT7=
EXTT8=
EXTT9=
PLAYORDER=
